M48
; DRILL file {KiCad 5.1.10} date Sun Sep 12 12:36:58 2021
; FORMAT={-:-/ absolute / inch / decimal}
; #@! TF.CreationDate,2021-09-12T12:36:58-05:00
; #@! TF.GenerationSoftware,Kicad,Pcbnew,5.1.10
; #@! TF.FileFunction,NonPlated,1,2,NPTH
FMAT,2
INCH
T1C0.0256
T2C0.0454
T3C0.0551
T4C0.0689
T5C0.0866
T6C0.0984
T7C0.1200
T8C0.1570
T9C0.1969
%
G90
G05
T1
X6.8443Y-1.3937
T2
X2.2793Y-6.8527
X14.3138Y-1.4052
X14.3363Y-7.6192
T3
X6.4716Y-1.5492
T4
X2.3818Y-3.5524
X2.3818Y-4.3024
X2.3818Y-5.0524
X2.3818Y-5.8024
X2.3818Y-6.5524
X2.7818Y-3.5524
X2.7818Y-4.3024
X2.7818Y-5.0524
X2.7818Y-5.8024
X2.7818Y-6.5524
X3.3194Y-3.5524
X3.3194Y-6.5524
X3.5069Y-4.3024
X3.6006Y-5.0524
X3.7194Y-3.5524
X3.7194Y-6.5524
X3.7881Y-5.8024
X3.9069Y-4.3024
X4.0006Y-5.0524
X4.0694Y-2.8024
X4.0694Y-3.5524
X4.0694Y-6.5524
X4.1881Y-5.8024
X4.4444Y-4.3024
X4.4694Y-2.8024
X4.4694Y-3.5524
X4.4694Y-6.5524
X4.6319Y-5.0524
X4.8194Y-2.8024
X4.8194Y-3.5524
X4.8444Y-4.3024
X4.9131Y-6.5524
X5.0069Y-5.8024
X5.0319Y-5.0524
X5.1944Y-4.3024
X5.2194Y-2.8024
X5.2194Y-3.5524
X5.3131Y-6.5524
X5.3819Y-5.0524
X5.4069Y-5.8024
X5.5694Y-2.8024
X5.5694Y-3.5524
X5.5944Y-4.3024
X5.7569Y-5.8024
X5.7819Y-5.0524
X5.8506Y-6.5524
X5.9444Y-4.3024
X5.9694Y-2.8024
X5.9694Y-3.5524
X6.1319Y-5.0524
X6.1569Y-5.8024
X6.2506Y-6.5524
X6.3194Y-2.8024
X6.3194Y-3.5524
X6.3444Y-4.3024
X6.5069Y-5.8024
X6.5319Y-5.0524
X6.6944Y-4.3024
X6.7194Y-2.8024
X6.7194Y-3.5524
X6.7881Y-6.5524
X6.8819Y-5.0524
X6.9069Y-5.8024
X7.0694Y-2.8024
X7.0694Y-3.5524
X7.0944Y-4.3024
X7.1881Y-6.5524
X7.2569Y-5.8024
X7.2819Y-5.0524
X7.4444Y-4.3024
X7.4694Y-2.8024
X7.4694Y-3.5524
X7.6319Y-5.0524
X7.6569Y-5.8024
X7.8194Y-2.8024
X7.8194Y-3.5524
X7.8319Y-6.5399
X7.8319Y-6.9399
X7.8444Y-4.3024
X8.0069Y-5.8024
X8.0319Y-5.0524
X8.1944Y-4.3024
X8.2194Y-2.8024
X8.2194Y-3.5524
X8.3819Y-5.0524
X8.4069Y-5.8024
X8.5694Y-2.8024
X8.5694Y-3.5524
X8.5819Y-6.7274
X8.5819Y-7.1274
X8.5944Y-4.3024
X8.7569Y-5.8024
X8.7819Y-5.0524
X8.9444Y-4.3024
X8.9694Y-2.8024
X8.9694Y-3.5524
X9.1319Y-5.0524
X9.1569Y-5.8024
X9.3194Y-2.8024
X9.3194Y-3.5524
X9.3319Y-6.4461
X9.3319Y-6.8461
X9.3444Y-4.3024
X9.5069Y-5.8024
X9.5319Y-5.0524
X9.6944Y-4.3024
X9.7194Y-2.8024
X9.7194Y-3.5524
X9.8819Y-5.0524
X9.9069Y-5.8024
X9.9756Y-6.5524
X10.0694Y-2.8024
X10.0694Y-3.5524
X10.0944Y-4.3024
X10.2569Y-5.8024
X10.2819Y-5.0524
X10.3756Y-6.5524
X10.4444Y-4.3024
X10.4694Y-2.8024
X10.4694Y-3.5524
X10.6319Y-5.0524
X10.6569Y-5.8024
X10.8194Y-2.8024
X10.8194Y-3.5524
X10.8194Y-6.5524
X10.8444Y-4.3024
X11.0069Y-5.8024
X11.0319Y-5.0524
X11.1944Y-4.3024
X11.2194Y-2.8024
X11.2194Y-3.5524
X11.2194Y-6.5524
X11.3819Y-5.0524
X11.4069Y-5.8024
X11.5694Y-2.8024
X11.5694Y-3.5524
X11.5694Y-6.5524
X11.5944Y-4.3024
X11.7569Y-5.8024
X11.7819Y-5.0524
X11.9444Y-4.3024
X11.9694Y-2.8024
X11.9694Y-3.5524
X11.9694Y-6.5524
X12.1319Y-5.0524
X12.1569Y-5.8024
X12.3194Y-2.8024
X12.3194Y-3.5524
X12.3194Y-6.5524
X12.3194Y-7.3024
X12.3444Y-4.3024
X12.5319Y-5.0524
X12.6944Y-4.3024
X12.7194Y-2.8024
X12.7194Y-3.5524
X12.7194Y-6.5524
X12.7194Y-7.3024
X12.7881Y-5.8024
X12.9756Y-5.0524
X13.0694Y-2.8024
X13.0694Y-3.5524
X13.0694Y-6.5524
X13.0694Y-7.3024
X13.0944Y-4.3024
X13.1881Y-5.8024
X13.3756Y-5.0524
X13.4694Y-2.8024
X13.4694Y-3.5524
X13.4694Y-6.5524
X13.4694Y-7.3024
X13.6319Y-4.3024
X13.8194Y-2.8024
X13.8194Y-3.5524
X13.8194Y-5.0524
X13.8194Y-5.8024
X13.8194Y-6.5524
X13.8194Y-7.3024
X14.0319Y-4.3024
X14.2194Y-2.8024
X14.2194Y-3.5524
X14.2194Y-5.0524
X14.2194Y-5.8024
X14.2194Y-6.5524
X14.2194Y-7.3024
T5
X2.9587Y-3.375
X3.5326Y-4.6762
X3.8962Y-6.375
X5.3962Y-2.625
X6.4275Y-6.375
X8.2201Y-4.6762
X9.1463Y-3.1762
X10.5525Y-6.9262
X13.6463Y-3.1762
X13.6463Y-6.9262
X13.6576Y-4.6762
T6
X6.5213Y-4.6762
X9.5213Y-4.6762
T7
X3.5181Y-5.5274
X4.4581Y-5.5274
X8.3069Y-6.4574
X8.3069Y-7.3974
T8
X3.5181Y-6.1274
X4.4581Y-6.1274
X8.9069Y-6.4574
X8.9069Y-7.3974
T9
X2.5818Y-3.5524
X2.5818Y-4.3024
X2.5818Y-5.0524
X2.5818Y-5.8024
X2.5818Y-6.5524
X3.5194Y-3.5524
X3.5194Y-6.5524
X3.7069Y-4.3024
X3.8006Y-5.0524
X3.9881Y-5.8024
X4.2694Y-2.8024
X4.2694Y-3.5524
X4.2694Y-6.5524
X4.6444Y-4.3024
X4.8319Y-5.0524
X5.0194Y-2.8024
X5.0194Y-3.5524
X5.1131Y-6.5524
X5.2069Y-5.8024
X5.3944Y-4.3024
X5.5819Y-5.0524
X5.7694Y-2.8024
X5.7694Y-3.5524
X5.9569Y-5.8024
X6.0506Y-6.5524
X6.1444Y-4.3024
X6.3319Y-5.0524
X6.5194Y-2.8024
X6.5194Y-3.5524
X6.7069Y-5.8024
X6.8944Y-4.3024
X6.9881Y-6.5524
X7.0819Y-5.0524
X7.2694Y-2.8024
X7.2694Y-3.5524
X7.4569Y-5.8024
X7.6444Y-4.3024
X7.8319Y-5.0524
X7.8319Y-6.7399
X8.0194Y-2.8024
X8.0194Y-3.5524
X8.2069Y-5.8024
X8.3944Y-4.3024
X8.5819Y-5.0524
X8.5819Y-6.9274
X8.7694Y-2.8024
X8.7694Y-3.5524
X8.9569Y-5.8024
X9.1444Y-4.3024
X9.3319Y-5.0524
X9.3319Y-6.6461
X9.5194Y-2.8024
X9.5194Y-3.5524
X9.7069Y-5.8024
X9.8944Y-4.3024
X10.0819Y-5.0524
X10.1756Y-6.5524
X10.2694Y-2.8024
X10.2694Y-3.5524
X10.4569Y-5.8024
X10.6444Y-4.3024
X10.8319Y-5.0524
X11.0194Y-2.8024
X11.0194Y-3.5524
X11.0194Y-6.5524
X11.2069Y-5.8024
X11.3944Y-4.3024
X11.5819Y-5.0524
X11.7694Y-2.8024
X11.7694Y-3.5524
X11.7694Y-6.5524
X11.9569Y-5.8024
X12.1444Y-4.3024
X12.3319Y-5.0524
X12.5194Y-2.8024
X12.5194Y-3.5524
X12.5194Y-6.5524
X12.5194Y-7.3024
X12.8944Y-4.3024
X12.9881Y-5.8024
X13.1756Y-5.0524
X13.2694Y-2.8024
X13.2694Y-3.5524
X13.2694Y-6.5524
X13.2694Y-7.3024
X13.8319Y-4.3024
X14.0194Y-2.8024
X14.0194Y-3.5524
X14.0194Y-5.0524
X14.0194Y-5.8024
X14.0194Y-6.5524
X14.0194Y-7.3024
T1
G00X7.1218Y-1.3937
M15
G01X7.1336Y-1.3937
M16
G05
T0
M30
