M48
; DRILL file {KiCad 5.1.10} date Sun Sep 12 12:36:58 2021
; FORMAT={-:-/ absolute / inch / decimal}
; #@! TF.CreationDate,2021-09-12T12:36:58-05:00
; #@! TF.GenerationSoftware,Kicad,Pcbnew,5.1.10
; #@! TF.FileFunction,Plated,1,2,PTH
FMAT,2
INCH
T1C0.0157
T2C0.0197
T3C0.0276
T4C0.0394
T5C0.0433
T6C0.0579
T7C0.0591
T8C0.0630
T9C0.0866
T10C0.1024
T11C0.1236
%
G90
G05
T1
X4.3325Y-5.37
X4.36Y-4.62
X4.8Y-6.225
X4.8089Y-6.0361
X4.81Y-6.175
X6.8758Y-1.3681
X6.8915Y-1.3405
X6.923Y-1.3405
X6.9388Y-1.3681
X6.9545Y-1.3405
X6.9703Y-1.3681
X7.0017Y-1.3681
X7.0175Y-1.3405
X7.0332Y-1.3681
X7.049Y-1.3405
X7.0805Y-1.3405
X7.0962Y-1.3681
X8.1299Y-1.7881
X8.1299Y-2.23
T4
X3.4783Y-1.6895
X3.5198Y-1.7787
X3.5614Y-1.8679
X4.2197Y-1.5631
X4.2197Y-2.1622
X4.3197Y-1.5631
X4.3197Y-2.1622
X4.4197Y-1.5631
X4.4197Y-2.1622
X4.5197Y-1.5631
X4.5197Y-2.1622
X4.6197Y-1.5631
X4.6197Y-2.1622
X4.7197Y-1.5631
X4.7197Y-2.1622
X4.9197Y-1.5631
X4.9197Y-2.1622
X5.0197Y-1.5631
X5.0197Y-2.1622
X5.1197Y-1.5631
X5.1197Y-2.1622
X5.2197Y-1.5631
X5.2197Y-2.1622
X5.3197Y-1.5631
X5.3197Y-2.1622
X5.4197Y-1.5631
X5.4197Y-2.1622
X5.5197Y-1.5631
X5.5197Y-2.1622
X5.6197Y-1.5631
X5.6197Y-2.1622
X5.7197Y-1.5631
X5.7197Y-2.1622
X5.8197Y-1.5631
X5.8197Y-1.6631
X5.8197Y-1.7631
X5.8197Y-1.8631
X5.8197Y-2.0622
X5.8197Y-2.1622
X5.9197Y-1.5631
X5.9197Y-2.1622
X6.0197Y-1.5631
X6.0197Y-2.1622
X6.9563Y-7.6524
X7.035Y-7.6524
X7.1137Y-7.6524
X7.385Y-7.2236
X7.385Y-7.3024
X7.385Y-7.3811
X7.388Y-2.234
X7.488Y-2.234
X7.588Y-2.234
X7.688Y-2.234
X7.896Y-1.44
X7.996Y-1.44
X8.096Y-1.44
X8.196Y-1.44
X8.296Y-1.44
X8.396Y-1.44
X8.496Y-1.44
X8.596Y-1.44
X8.696Y-1.44
X8.796Y-1.44
X9.084Y-1.44
X9.184Y-1.44
X9.284Y-1.44
X9.384Y-1.44
T5
X2.4785Y-2.1539
X2.5208Y-2.2446
X2.563Y-2.3352
X2.5684Y-2.1138
X2.6516Y-2.2922
X3.0858Y-1.8725
X3.1274Y-1.9617
X3.1689Y-2.0509
T6
X2.4318Y-3.4524
X2.4318Y-4.2024
X2.4318Y-4.9524
X2.4318Y-5.7024
X2.4318Y-6.4524
X2.4834Y-3.3949
X2.4834Y-4.1449
X2.4834Y-4.8949
X2.4834Y-5.6449
X2.4834Y-6.3949
X2.5818Y-3.7846
X2.5818Y-4.5346
X2.5818Y-5.2847
X2.5818Y-6.0347
X2.5818Y-6.7847
X2.6803Y-3.3752
X2.6803Y-4.1252
X2.6803Y-4.8752
X2.6803Y-5.6252
X2.6803Y-6.3752
X2.6818Y-3.3524
X2.6818Y-4.1024
X2.6818Y-4.8524
X2.6818Y-5.6024
X2.6818Y-6.3524
X2.7787Y-3.702
X2.7787Y-4.452
X2.7787Y-5.202
X2.7787Y-5.952
X2.7787Y-6.702
X3.3694Y-3.4524
X3.3694Y-6.4524
X3.4209Y-3.3949
X3.4209Y-6.3949
X3.5194Y-3.7846
X3.5194Y-6.7847
X3.5569Y-4.2024
X3.6084Y-4.1449
X3.6178Y-3.3752
X3.6178Y-6.3752
X3.6194Y-3.3524
X3.6194Y-6.3524
X3.6506Y-4.9524
X3.7022Y-4.8949
X3.7069Y-4.5346
X3.7162Y-3.702
X3.7162Y-6.702
X3.8006Y-5.2847
X3.8053Y-4.1252
X3.8069Y-4.1024
X3.8381Y-5.7024
X3.8897Y-5.6449
X3.899Y-4.8752
X3.9006Y-4.8524
X3.9037Y-4.452
X3.9881Y-6.0347
X3.9975Y-5.202
X4.0865Y-5.6252
X4.0881Y-5.6024
X4.1194Y-2.7024
X4.1194Y-3.4524
X4.1194Y-6.4524
X4.1709Y-2.6449
X4.1709Y-3.3949
X4.1709Y-6.3949
X4.185Y-5.952
X4.2694Y-3.0346
X4.2694Y-3.7846
X4.2694Y-6.7847
X4.3678Y-2.6252
X4.3678Y-3.3752
X4.3678Y-6.3752
X4.3694Y-2.6024
X4.3694Y-3.3524
X4.3694Y-6.3524
X4.4662Y-2.952
X4.4662Y-3.702
X4.4662Y-6.702
X4.4944Y-4.2024
X4.5459Y-4.1449
X4.6444Y-4.5346
X4.6819Y-4.9524
X4.7334Y-4.8949
X4.7428Y-4.1252
X4.7444Y-4.1024
X4.8319Y-5.2847
X4.8412Y-4.452
X4.8694Y-2.7024
X4.8694Y-3.4524
X4.9209Y-2.6449
X4.9209Y-3.3949
X4.9303Y-4.8752
X4.9319Y-4.8524
X4.9631Y-6.4524
X5.0147Y-6.3949
X5.0194Y-3.0346
X5.0194Y-3.7846
X5.0287Y-5.202
X5.0569Y-5.7024
X5.1084Y-5.6449
X5.1131Y-6.7847
X5.1178Y-2.6252
X5.1178Y-3.3752
X5.1194Y-2.6024
X5.1194Y-3.3524
X5.2069Y-6.0347
X5.2115Y-6.3752
X5.2131Y-6.3524
X5.2162Y-2.952
X5.2162Y-3.702
X5.2444Y-4.2024
X5.2959Y-4.1449
X5.3053Y-5.6252
X5.3069Y-5.6024
X5.31Y-6.702
X5.3944Y-4.5346
X5.4037Y-5.952
X5.4319Y-4.9524
X5.4834Y-4.8949
X5.4928Y-4.1252
X5.4944Y-4.1024
X5.5819Y-5.2847
X5.5912Y-4.452
X5.6194Y-2.7024
X5.6194Y-3.4524
X5.6709Y-2.6449
X5.6709Y-3.3949
X5.6803Y-4.8752
X5.6819Y-4.8524
X5.7694Y-3.0346
X5.7694Y-3.7846
X5.7787Y-5.202
X5.8069Y-5.7024
X5.8584Y-5.6449
X5.8678Y-2.6252
X5.8678Y-3.3752
X5.8694Y-2.6024
X5.8694Y-3.3524
X5.9006Y-6.4524
X5.9522Y-6.3949
X5.9569Y-6.0347
X5.9662Y-2.952
X5.9662Y-3.702
X5.9944Y-4.2024
X6.0459Y-4.1449
X6.0506Y-6.7847
X6.0553Y-5.6252
X6.0569Y-5.6024
X6.1444Y-4.5346
X6.149Y-6.3752
X6.1506Y-6.3524
X6.1537Y-5.952
X6.1819Y-4.9524
X6.2334Y-4.8949
X6.2428Y-4.1252
X6.2444Y-4.1024
X6.2475Y-6.702
X6.3319Y-5.2847
X6.3412Y-4.452
X6.3694Y-2.7024
X6.3694Y-3.4524
X6.4209Y-2.6449
X6.4209Y-3.3949
X6.4303Y-4.8752
X6.4319Y-4.8524
X6.5194Y-3.0346
X6.5194Y-3.7846
X6.5287Y-5.202
X6.5569Y-5.7024
X6.6084Y-5.6449
X6.6178Y-2.6252
X6.6178Y-3.3752
X6.6194Y-2.6024
X6.6194Y-3.3524
X6.7069Y-6.0347
X6.7162Y-2.952
X6.7162Y-3.702
X6.7444Y-4.2024
X6.7959Y-4.1449
X6.8053Y-5.6252
X6.8069Y-5.6024
X6.8381Y-6.4524
X6.8897Y-6.3949
X6.8944Y-4.5346
X6.9037Y-5.952
X6.9319Y-4.9524
X6.9834Y-4.8949
X6.9881Y-6.7847
X6.9928Y-4.1252
X6.9944Y-4.1024
X7.0819Y-5.2847
X7.0865Y-6.3752
X7.0881Y-6.3524
X7.0912Y-4.452
X7.1194Y-2.7024
X7.1194Y-3.4524
X7.1709Y-2.6449
X7.1709Y-3.3949
X7.1803Y-4.8752
X7.1819Y-4.8524
X7.185Y-6.702
X7.2694Y-3.0346
X7.2694Y-3.7846
X7.2787Y-5.202
X7.3069Y-5.7024
X7.3584Y-5.6449
X7.3678Y-2.6252
X7.3678Y-3.3752
X7.3694Y-2.6024
X7.3694Y-3.3524
X7.4569Y-6.0347
X7.4662Y-2.952
X7.4662Y-3.702
X7.4944Y-4.2024
X7.5459Y-4.1449
X7.5553Y-5.6252
X7.5569Y-5.6024
X7.6319Y-6.6399
X7.6444Y-4.5346
X7.6537Y-5.952
X7.6547Y-6.6415
X7.6744Y-6.8383
X7.6819Y-4.9524
X7.7319Y-6.8899
X7.7334Y-4.8949
X7.7428Y-4.1252
X7.7444Y-4.1024
X7.8319Y-5.2847
X7.8412Y-4.452
X7.8694Y-2.7024
X7.8694Y-3.4524
X7.9209Y-2.6449
X7.9209Y-3.3949
X7.9303Y-4.8752
X7.9319Y-4.8524
X7.9815Y-6.543
X8.0194Y-3.0346
X8.0194Y-3.7846
X8.0287Y-5.202
X8.0569Y-5.7024
X8.0642Y-6.7399
X8.1084Y-5.6449
X8.1178Y-2.6252
X8.1178Y-3.3752
X8.1194Y-2.6024
X8.1194Y-3.3524
X8.2069Y-6.0347
X8.2162Y-2.952
X8.2162Y-3.702
X8.2444Y-4.2024
X8.2959Y-4.1449
X8.3053Y-5.6252
X8.3069Y-5.6024
X8.3819Y-6.8274
X8.3944Y-4.5346
X8.4037Y-5.952
X8.4047Y-6.829
X8.4244Y-7.0258
X8.4319Y-4.9524
X8.4819Y-7.0774
X8.4834Y-4.8949
X8.4928Y-4.1252
X8.4944Y-4.1024
X8.5819Y-5.2847
X8.5912Y-4.452
X8.6194Y-2.7024
X8.6194Y-3.4524
X8.6709Y-2.6449
X8.6709Y-3.3949
X8.6803Y-4.8752
X8.6819Y-4.8524
X8.7315Y-6.7305
X8.7694Y-3.0346
X8.7694Y-3.7846
X8.7787Y-5.202
X8.8069Y-5.7024
X8.8142Y-6.9274
X8.8584Y-5.6449
X8.8678Y-2.6252
X8.8678Y-3.3752
X8.8694Y-2.6024
X8.8694Y-3.3524
X8.9569Y-6.0347
X8.9662Y-2.952
X8.9662Y-3.702
X8.9944Y-4.2024
X9.0459Y-4.1449
X9.0553Y-5.6252
X9.0569Y-5.6024
X9.1319Y-6.5461
X9.1444Y-4.5346
X9.1537Y-5.952
X9.1547Y-6.5477
X9.1744Y-6.7446
X9.1819Y-4.9524
X9.2319Y-6.7961
X9.2334Y-4.8949
X9.2428Y-4.1252
X9.2444Y-4.1024
X9.3319Y-5.2847
X9.3412Y-4.452
X9.3694Y-2.7024
X9.3694Y-3.4524
X9.421Y-2.6449
X9.421Y-3.3949
X9.4303Y-4.8752
X9.4319Y-4.8524
X9.4815Y-6.4493
X9.5194Y-3.0346
X9.5194Y-3.7846
X9.5287Y-5.202
X9.5569Y-5.7024
X9.5642Y-6.6461
X9.6085Y-5.6449
X9.6178Y-2.6252
X9.6178Y-3.3752
X9.6194Y-2.6024
X9.6194Y-3.3524
X9.7069Y-6.0347
X9.7162Y-2.952
X9.7162Y-3.702
X9.7444Y-4.2024
X9.796Y-4.1449
X9.8053Y-5.6252
X9.8069Y-5.6024
X9.8944Y-4.5346
X9.9037Y-5.952
X9.9319Y-4.9524
X9.9835Y-4.8949
X9.9928Y-4.1252
X9.9944Y-4.1024
X10.0256Y-6.4524
X10.0772Y-6.3949
X10.0819Y-5.2847
X10.0912Y-4.452
X10.1194Y-2.7024
X10.1194Y-3.4524
X10.171Y-2.6449
X10.171Y-3.3949
X10.1756Y-6.7847
X10.1803Y-4.8752
X10.1819Y-4.8524
X10.2694Y-3.0346
X10.2694Y-3.7846
X10.2741Y-6.3752
X10.2756Y-6.3524
X10.2787Y-5.202
X10.3069Y-5.7024
X10.3585Y-5.6449
X10.3678Y-2.6252
X10.3678Y-3.3752
X10.3694Y-2.6024
X10.3694Y-3.3524
X10.3725Y-6.702
X10.4569Y-6.0347
X10.4662Y-2.952
X10.4662Y-3.702
X10.4944Y-4.2024
X10.546Y-4.1449
X10.5553Y-5.6252
X10.5569Y-5.6024
X10.6444Y-4.5346
X10.6537Y-5.952
X10.6819Y-4.9524
X10.7335Y-4.8949
X10.7428Y-4.1252
X10.7444Y-4.1024
X10.8319Y-5.2847
X10.8412Y-4.452
X10.8694Y-2.7024
X10.8694Y-3.4524
X10.8694Y-6.4524
X10.921Y-2.6449
X10.921Y-3.3949
X10.921Y-6.3949
X10.9303Y-4.8752
X10.9319Y-4.8524
X11.0194Y-3.0346
X11.0194Y-3.7846
X11.0194Y-6.7847
X11.0287Y-5.202
X11.0569Y-5.7024
X11.1085Y-5.6449
X11.1178Y-2.6252
X11.1178Y-3.3752
X11.1178Y-6.3752
X11.1194Y-2.6024
X11.1194Y-3.3524
X11.1194Y-6.3524
X11.2069Y-6.0347
X11.2162Y-2.952
X11.2162Y-3.702
X11.2162Y-6.702
X11.2444Y-4.2024
X11.296Y-4.1449
X11.3053Y-5.6252
X11.3069Y-5.6024
X11.3944Y-4.5346
X11.4037Y-5.952
X11.4319Y-4.9524
X11.4835Y-4.8949
X11.4928Y-4.1252
X11.4944Y-4.1024
X11.5819Y-5.2847
X11.5912Y-4.452
X11.6194Y-2.7024
X11.6194Y-3.4524
X11.6194Y-6.4524
X11.671Y-2.6449
X11.671Y-3.3949
X11.671Y-6.3949
X11.6803Y-4.8752
X11.6819Y-4.8524
X11.7694Y-3.0346
X11.7694Y-3.7846
X11.7694Y-6.7847
X11.7787Y-5.202
X11.8069Y-5.7024
X11.8585Y-5.6449
X11.8678Y-2.6252
X11.8678Y-3.3752
X11.8678Y-6.3752
X11.8694Y-2.6024
X11.8694Y-3.3524
X11.8694Y-6.3524
X11.9569Y-6.0347
X11.9662Y-2.952
X11.9662Y-3.702
X11.9662Y-6.702
X11.9944Y-4.2024
X12.046Y-4.1449
X12.0553Y-5.6252
X12.0569Y-5.6024
X12.1444Y-4.5346
X12.1537Y-5.952
X12.1819Y-4.9524
X12.2335Y-4.8949
X12.2428Y-4.1252
X12.2444Y-4.1024
X12.3319Y-5.2847
X12.3412Y-4.452
X12.3694Y-2.7024
X12.3694Y-3.4524
X12.3694Y-6.4524
X12.3694Y-7.2024
X12.421Y-2.6449
X12.421Y-3.3949
X12.421Y-6.3949
X12.421Y-7.1449
X12.4303Y-4.8752
X12.4319Y-4.8524
X12.5194Y-3.0346
X12.5194Y-3.7846
X12.5194Y-6.7847
X12.5194Y-7.5347
X12.5287Y-5.202
X12.6178Y-2.6252
X12.6178Y-3.3752
X12.6178Y-6.3752
X12.6178Y-7.1252
X12.6194Y-2.6024
X12.6194Y-3.3524
X12.6194Y-6.3524
X12.6194Y-7.1024
X12.7162Y-2.952
X12.7162Y-3.702
X12.7162Y-6.702
X12.7162Y-7.452
X12.7444Y-4.2024
X12.796Y-4.1449
X12.8381Y-5.7024
X12.8897Y-5.6449
X12.8944Y-4.5346
X12.9881Y-6.0347
X12.9928Y-4.1252
X12.9944Y-4.1024
X13.0256Y-4.9524
X13.0772Y-4.8949
X13.0866Y-5.6252
X13.0881Y-5.6024
X13.0912Y-4.452
X13.1194Y-2.7024
X13.1194Y-3.4524
X13.1194Y-6.4524
X13.1194Y-7.2024
X13.171Y-2.6449
X13.171Y-3.3949
X13.171Y-6.3949
X13.171Y-7.1449
X13.1756Y-5.2847
X13.185Y-5.952
X13.2694Y-3.0346
X13.2694Y-3.7846
X13.2694Y-6.7847
X13.2694Y-7.5347
X13.2741Y-4.8752
X13.2756Y-4.8524
X13.3678Y-2.6252
X13.3678Y-3.3752
X13.3678Y-6.3752
X13.3678Y-7.1252
X13.3694Y-2.6024
X13.3694Y-3.3524
X13.3694Y-6.3524
X13.3694Y-7.1024
X13.3725Y-5.202
X13.4662Y-2.952
X13.4662Y-3.702
X13.4662Y-6.702
X13.4662Y-7.452
X13.6819Y-4.2024
X13.7335Y-4.1449
X13.8319Y-4.5346
X13.8694Y-2.7024
X13.8694Y-3.4524
X13.8694Y-4.9524
X13.8694Y-5.7024
X13.8694Y-6.4524
X13.8694Y-7.2024
X13.921Y-2.6449
X13.921Y-3.3949
X13.921Y-4.8949
X13.921Y-5.6449
X13.921Y-6.3949
X13.921Y-7.1449
X13.9303Y-4.1252
X13.9319Y-4.1024
X14.0194Y-3.0346
X14.0194Y-3.7846
X14.0194Y-5.2847
X14.0194Y-6.0347
X14.0194Y-6.7847
X14.0194Y-7.5347
X14.0287Y-4.452
X14.1178Y-2.6252
X14.1178Y-3.3752
X14.1178Y-4.8752
X14.1178Y-5.6252
X14.1178Y-6.3752
X14.1178Y-7.1252
X14.1194Y-2.6024
X14.1194Y-3.3524
X14.1194Y-4.8524
X14.1194Y-5.6024
X14.1194Y-6.3524
X14.1194Y-7.1024
X14.2162Y-2.952
X14.2162Y-3.702
X14.2162Y-5.202
X14.2162Y-5.952
X14.2162Y-6.702
X14.2162Y-7.452
T8
X2.385Y-3.3496
X2.385Y-4.0996
X2.385Y-4.8496
X2.385Y-5.5996
X2.385Y-6.3496
X3.3225Y-3.3496
X3.3225Y-6.3496
X3.51Y-4.0996
X3.6038Y-4.8496
X3.7913Y-5.5996
X4.0725Y-2.5996
X4.0725Y-3.3496
X4.0725Y-6.3496
X4.4475Y-4.0996
X4.635Y-4.8496
X4.8225Y-2.5996
X4.8225Y-3.3496
X4.9163Y-6.3496
X5.01Y-5.5996
X5.1975Y-4.0996
X5.385Y-4.8496
X5.5725Y-2.5996
X5.5725Y-3.3496
X5.76Y-5.5996
X5.8538Y-6.3496
X5.9475Y-4.0996
X6.135Y-4.8496
X6.3225Y-2.5996
X6.3225Y-3.3496
X6.51Y-5.5996
X6.6975Y-4.0996
X6.7913Y-6.3496
X6.885Y-4.8496
X7.0725Y-2.5996
X7.0725Y-3.3496
X7.26Y-5.5996
X7.4475Y-4.0996
X7.6291Y-6.9367
X7.635Y-4.8496
X7.8225Y-2.5996
X7.8225Y-3.3496
X8.01Y-5.5996
X8.1975Y-4.0996
X8.3791Y-7.1242
X8.385Y-4.8496
X8.5725Y-2.5996
X8.5725Y-3.3496
X8.76Y-5.5996
X8.9475Y-4.0996
X9.1291Y-6.843
X9.135Y-4.8496
X9.3225Y-2.5996
X9.3225Y-3.3496
X9.51Y-5.5996
X9.6975Y-4.0996
X9.885Y-4.8496
X9.9788Y-6.3496
X10.0725Y-2.5996
X10.0725Y-3.3496
X10.26Y-5.5996
X10.4475Y-4.0996
X10.635Y-4.8496
X10.8225Y-2.5996
X10.8225Y-3.3496
X10.8225Y-6.3496
X11.01Y-5.5996
X11.1975Y-4.0996
X11.385Y-4.8496
X11.5725Y-2.5996
X11.5725Y-3.3496
X11.5725Y-6.3496
X11.76Y-5.5996
X11.9475Y-4.0996
X12.135Y-4.8496
X12.3225Y-2.5996
X12.3225Y-3.3496
X12.3225Y-6.3496
X12.3225Y-7.0996
X12.6975Y-4.0996
X12.7913Y-5.5996
X12.9788Y-4.8496
X13.0725Y-2.5996
X13.0725Y-3.3496
X13.0725Y-6.3496
X13.0725Y-7.0996
X13.635Y-4.0996
X13.8225Y-2.5996
X13.8225Y-3.3496
X13.8225Y-4.8496
X13.8225Y-5.5996
X13.8225Y-6.3496
X13.8225Y-7.0996
T9
X6.131Y-1.5871
X6.131Y-2.1381
T10
X2.6152Y-1.562
X3.1043Y-2.611
T11
X2.7682Y-1.8902
X2.9513Y-2.2827
T2
G00X6.8092Y-1.1531
M15
G01X6.8092Y-1.1807
M16
G05
G00X6.8234Y-1.3326
M15
G01X6.8234Y-1.3563
M16
G05
G00X7.1486Y-1.3326
M15
G01X7.1486Y-1.3563
M16
G05
G00X7.1628Y-1.1531
M15
G01X7.1628Y-1.1807
M16
G05
T3
G00X6.3575Y-1.1693
M15
G01X6.3575Y-1.2048
M16
G05
G00X6.3693Y-1.3347
M15
G01X6.3693Y-1.3701
M16
G05
G00X6.3693Y-1.5315
M15
G01X6.3693Y-1.567
M16
G05
G00X6.5425Y-1.5709
M15
G01X6.5425Y-1.6063
M16
G05
G00X6.5583Y-1.1733
M15
G01X6.5583Y-1.2087
M16
G05
G00X6.574Y-1.4843
M15
G01X6.574Y-1.5197
M16
G05
T7
G00X2.3085Y-2.3436
M15
G01X2.362Y-2.3186
M16
G05
G00X2.5085Y-1.5009
M15
G01X2.637Y-1.441
M16
G05
G00X3.211Y-2.672
M15
G01X3.0825Y-2.7319
M16
G05
G00X3.411Y-1.8294
M15
G01X3.3575Y-1.8544
M16
G05
T0
M30
